<?xml version="1.0" encoding="UTF-8"?>
<svg width="52px" height="52px" viewBox="0 0 52 52" version="1.1" xmlns="http://www.w3.org/2000/svg" xmlns:xlink="http://www.w3.org/1999/xlink">
    <!-- Generator: Sketch 60.1 (88133) - https://sketch.com -->
    <title>360 - v5</title>
    <desc>Created with Sketch.</desc>
    <g id="Welcome" stroke="none" stroke-width="1" fill="none" fill-rule="evenodd" stroke-linejoin="round">
        <g id="Desktop---Chiuso" transform="translate(-118.000000, -578.000000)" stroke="#1D1001" stroke-width="2">
            <g id="VT" transform="translate(119.000000, 551.000000)">
                <g id="360---v5" transform="translate(0.000000, 28.000000)">
                    <path d="M20.7180435,4.4901087 C8.95065217,5.28576087 -0.000434782609,9.29880435 -0.000434782609,14.1303261" id="Stroke-1"></path>
                    <path d="M50,14.1304348 C50,9.29891304 41.05,5.28586957 29.2815217,4.49021739" id="Stroke-3"></path>
                    <path d="M29.3478261,5.43478261 C29.3478261,8.43695652 27.401087,10.8695652 25,10.8695652 C22.598913,10.8695652 20.6521739,8.43695652 20.6521739,5.43478261 C20.6521739,2.4326087 22.598913,0 25,0 C27.401087,0 29.3478261,2.4326087 29.3478261,5.43478261 Z" id="Stroke-5"></path>
                    <line x1="16.3043478" y1="50" x2="33.6956522" y2="50" id="Stroke-7"></line>
                    <line x1="19.5652174" y1="28.2608696" x2="19.5652174" y2="50" id="Stroke-9"></line>
                    <line x1="25" y1="32.6086957" x2="25" y2="50" id="Stroke-11"></line>
                    <line x1="30.4347826" y1="28.2608696" x2="30.4347826" y2="50" id="Stroke-13"></line>
                    <path d="M19.5652174,16.3043478 L19.5652174,30.4347826 L17.3913043,30.4347826 C16.1913043,30.4347826 15.2173913,29.4608696 15.2173913,28.2608696 L15.2173913,15.8478261 C15.2173913,13.6326087 16.8836957,11.7717391 19.0858696,11.526087 L25,10.8695652" id="Stroke-15"></path>
                    <path d="M30.4347826,16.3043478 L30.4347826,30.4347826 L32.6086957,30.4347826 C33.8086957,30.4347826 34.7826087,29.4608696 34.7826087,28.2608696 L34.7826087,15.8478261 C34.7826087,13.6326087 33.1163043,11.7717391 30.9141304,11.526087 L25,10.8695652" id="Stroke-17"></path>
                    <line x1="19.5652174" y1="28.2608696" x2="30.4347826" y2="28.2608696" id="Stroke-19"></line>
                    <path d="M42.3913043,21.151087 L42.3913043,43.2380435 C47.0804348,41.4619565 50,38.973913 50,36.2173913 L50,14.1304348 C50,16.8858696 47.0804348,19.373913 42.3913043,21.151087 Z" id="Stroke-21"></path>
                    <path d="M0,14.1304348 L0,36.2173913 C0,38.973913 2.92065217,41.4619565 7.60869565,43.2391304 L7.60869565,21.151087 C2.92065217,19.373913 0,16.8869565 0,14.1304348 Z" id="Stroke-23"></path>
                    <path d="M15.2173913,27.2121739 C12.3728261,27.6871739 9.79782609,28.361087 7.60869565,29.1904348" id="Stroke-25"></path>
                    <path d="M42.383913,29.1875 C40.1958696,28.3592391 37.6252174,27.6853261 34.7828261,27.2125" id="Stroke-27"></path>
                </g>
            </g>
        </g>
    </g>
</svg>