<?xml version="1.0" encoding="UTF-8"?>
<svg width="50px" height="50px" viewBox="0 0 50 50" version="1.1" xmlns="http://www.w3.org/2000/svg" xmlns:xlink="http://www.w3.org/1999/xlink">
    <!-- Generator: Sketch 60.1 (88133) - https://sketch.com -->
    <title>icon-offices</title>
    <desc>Created with Sketch.</desc>
    <g id="Welcome" stroke="none" stroke-width="1" fill="none" fill-rule="evenodd">
        <g id="Desktop---Chiuso" transform="translate(-120.000000, -477.000000)" fill="#000000" fill-rule="nonzero">
            <g id="corporate" transform="translate(120.000000, 452.000000)">
                <g id="icon-offices" transform="translate(0.000000, 25.000000)">
                    <path d="M8.7915601,21.7391304 L5.59462916,21.7391304 C5.15505115,21.7391304 4.79539642,22.2282609 4.79539642,22.826087 L4.79539642,27.173913 C4.79539642,27.7717391 5.15505115,28.2608696 5.59462916,28.2608696 L8.7915601,28.2608696 C9.23113811,28.2608696 9.59079284,27.7717391 9.59079284,27.173913 L9.59079284,22.826087 C9.59079284,22.2282609 9.23113811,21.7391304 8.7915601,21.7391304 Z M7.99232737,26.0869565 L6.39386189,26.0869565 L6.39386189,23.9130435 L7.99232737,23.9130435 L7.99232737,26.0869565 Z" id="Shape"></path>
                    <path d="M8.7915601,30.4347826 L5.59462916,30.4347826 C5.15505115,30.4347826 4.79539642,30.923913 4.79539642,31.5217391 L4.79539642,35.8695652 C4.79539642,36.4673913 5.15505115,36.9565217 5.59462916,36.9565217 L8.7915601,36.9565217 C9.23113811,36.9565217 9.59079284,36.4673913 9.59079284,35.8695652 L9.59079284,31.5217391 C9.59079284,30.923913 9.23113811,30.4347826 8.7915601,30.4347826 Z M7.99232737,34.7826087 L6.39386189,34.7826087 L6.39386189,32.6086957 L7.99232737,32.6086957 L7.99232737,34.7826087 Z" id="Shape"></path>
                    <path d="M8.7915601,39.1304348 L5.59462916,39.1304348 C5.15505115,39.1304348 4.79539642,39.6195652 4.79539642,40.2173913 L4.79539642,44.5652174 C4.79539642,45.1630435 5.15505115,45.6521739 5.59462916,45.6521739 L8.7915601,45.6521739 C9.23113811,45.6521739 9.59079284,45.1630435 9.59079284,44.5652174 L9.59079284,40.2173913 C9.59079284,39.6195652 9.23113811,39.1304348 8.7915601,39.1304348 Z M7.99232737,43.4782609 L6.39386189,43.4782609 L6.39386189,41.3043478 L7.99232737,41.3043478 L7.99232737,43.4782609 Z" id="Shape"></path>
                    <path d="M43.9578005,21.7391304 L40.7608696,21.7391304 C40.3212916,21.7391304 39.9616368,22.2282609 39.9616368,22.826087 L39.9616368,27.173913 C39.9616368,27.7717391 40.3212916,28.2608696 40.7608696,28.2608696 L43.9578005,28.2608696 C44.3973785,28.2608696 44.7570332,27.7717391 44.7570332,27.173913 L44.7570332,22.826087 C44.7570332,22.2282609 44.3973785,21.7391304 43.9578005,21.7391304 Z M43.1585678,26.0869565 L41.5601023,26.0869565 L41.5601023,23.9130435 L43.1585678,23.9130435 L43.1585678,26.0869565 Z" id="Shape"></path>
                    <path d="M8.7915601,13.0434783 L5.59462916,13.0434783 C5.15505115,13.0434783 4.79539642,13.5326087 4.79539642,14.1304348 L4.79539642,18.4782609 C4.79539642,19.076087 5.15505115,19.5652174 5.59462916,19.5652174 L8.7915601,19.5652174 C9.23113811,19.5652174 9.59079284,19.076087 9.59079284,18.4782609 L9.59079284,14.1304348 C9.59079284,13.5326087 9.23113811,13.0434783 8.7915601,13.0434783 Z M7.99232737,17.3913043 L6.39386189,17.3913043 L6.39386189,15.2173913 L7.99232737,15.2173913 L7.99232737,17.3913043 Z" id="Shape"></path>
                    <path d="M43.9578005,13.0434783 L40.7608696,13.0434783 C40.3212916,13.0434783 39.9616368,13.5326087 39.9616368,14.1304348 L39.9616368,18.4782609 C39.9616368,19.076087 40.3212916,19.5652174 40.7608696,19.5652174 L43.9578005,19.5652174 C44.3973785,19.5652174 44.7570332,19.076087 44.7570332,18.4782609 L44.7570332,14.1304348 C44.7570332,13.5326087 44.3973785,13.0434783 43.9578005,13.0434783 Z M43.1585678,17.3913043 L41.5601023,17.3913043 L41.5601023,15.2173913 L43.1585678,15.2173913 L43.1585678,17.3913043 Z" id="Shape"></path>
                    <path d="M43.9578005,30.4347826 L40.7608696,30.4347826 C40.3212916,30.4347826 39.9616368,30.923913 39.9616368,31.5217391 L39.9616368,35.8695652 C39.9616368,36.4673913 40.3212916,36.9565217 40.7608696,36.9565217 L43.9578005,36.9565217 C44.3973785,36.9565217 44.7570332,36.4673913 44.7570332,35.8695652 L44.7570332,31.5217391 C44.7570332,30.923913 44.3973785,30.4347826 43.9578005,30.4347826 Z M43.1585678,34.7826087 L41.5601023,34.7826087 L41.5601023,32.6086957 L43.1585678,32.6086957 L43.1585678,34.7826087 Z" id="Shape"></path>
                    <path d="M32.7685422,30.4347826 L29.5716113,30.4347826 C29.1320332,30.4347826 28.7723785,30.923913 28.7723785,31.5217391 L28.7723785,35.8695652 C28.7723785,36.4673913 29.1320332,36.9565217 29.5716113,36.9565217 L32.7685422,36.9565217 C33.2081202,36.9565217 33.5677749,36.4673913 33.5677749,35.8695652 L33.5677749,31.5217391 C33.5677749,30.923913 33.2081202,30.4347826 32.7685422,30.4347826 Z M31.9693095,34.7826087 L30.370844,34.7826087 L30.370844,32.6086957 L31.9693095,32.6086957 L31.9693095,34.7826087 Z" id="Shape"></path>
                    <path d="M26.3746803,30.4347826 L23.1777494,30.4347826 C22.7381714,30.4347826 22.3785166,30.923913 22.3785166,31.5217391 L22.3785166,35.8695652 C22.3785166,36.4673913 22.7381714,36.9565217 23.1777494,36.9565217 L26.3746803,36.9565217 C26.8142583,36.9565217 27.173913,36.4673913 27.173913,35.8695652 L27.173913,31.5217391 C27.173913,30.923913 26.8142583,30.4347826 26.3746803,30.4347826 Z M25.5754476,34.7826087 L23.9769821,34.7826087 L23.9769821,32.6086957 L25.5754476,32.6086957 L25.5754476,34.7826087 Z" id="Shape"></path>
                    <path d="M19.9808184,30.4347826 L16.7838875,30.4347826 C16.3443095,30.4347826 15.9846547,30.923913 15.9846547,31.5217391 L15.9846547,35.8695652 C15.9846547,36.4673913 16.3443095,36.9565217 16.7838875,36.9565217 L19.9808184,36.9565217 C20.4203964,36.9565217 20.7800512,36.4673913 20.7800512,35.8695652 L20.7800512,31.5217391 C20.7800512,30.923913 20.4203964,30.4347826 19.9808184,30.4347826 Z M19.1815857,34.7826087 L17.5831202,34.7826087 L17.5831202,32.6086957 L19.1815857,32.6086957 L19.1815857,34.7826087 Z" id="Shape"></path>
                    <path d="M33.5677749,14.1304348 C33.5677749,13.5326087 33.2081202,13.0434783 32.7685422,13.0434783 L29.5716113,13.0434783 C29.1320332,13.0434783 28.7723785,13.5326087 28.7723785,14.1304348 L28.7723785,18.4782609 C28.7723785,19.076087 29.1320332,19.5652174 29.5716113,19.5652174 L32.7685422,19.5652174 C33.2081202,19.5652174 33.5677749,19.076087 33.5677749,18.4782609 L33.5677749,14.1304348 Z M31.9693095,17.3913043 L30.370844,17.3913043 L30.370844,15.2173913 L31.9693095,15.2173913 L31.9693095,17.3913043 Z" id="Shape"></path>
                    <path d="M27.173913,14.1304348 C27.173913,13.5326087 26.8142583,13.0434783 26.3746803,13.0434783 L23.1777494,13.0434783 C22.7381714,13.0434783 22.3785166,13.5326087 22.3785166,14.1304348 L22.3785166,18.4782609 C22.3785166,19.076087 22.7381714,19.5652174 23.1777494,19.5652174 L26.3746803,19.5652174 C26.8142583,19.5652174 27.173913,19.076087 27.173913,18.4782609 L27.173913,14.1304348 Z M25.5754476,17.3913043 L23.9769821,17.3913043 L23.9769821,15.2173913 L25.5754476,15.2173913 L25.5754476,17.3913043 Z" id="Shape"></path>
                    <path d="M20.7800512,14.1304348 C20.7800512,13.5326087 20.4203964,13.0434783 19.9808184,13.0434783 L16.7838875,13.0434783 C16.3443095,13.0434783 15.9846547,13.5326087 15.9846547,14.1304348 L15.9846547,18.4782609 C15.9846547,19.076087 16.3443095,19.5652174 16.7838875,19.5652174 L19.9808184,19.5652174 C20.4203964,19.5652174 20.7800512,19.076087 20.7800512,18.4782609 L20.7800512,14.1304348 Z M19.1815857,17.3913043 L17.5831202,17.3913043 L17.5831202,15.2173913 L19.1815857,15.2173913 L19.1815857,17.3913043 Z" id="Shape"></path>
                    <path d="M33.5677749,6.11413043 C33.5677749,5.51630435 33.2081202,5.02717391 32.7685422,5.02717391 L29.5716113,5.02717391 C29.1320332,5.02717391 28.7723785,5.51630435 28.7723785,6.11413043 L28.7723785,10.4619565 C28.7723785,11.0597826 29.1320332,11.548913 29.5716113,11.548913 L32.7685422,11.548913 C33.2081202,11.548913 33.5677749,11.0597826 33.5677749,10.4619565 L33.5677749,6.11413043 Z M31.9693095,9.375 L30.370844,9.375 L30.370844,7.20108696 L31.9693095,7.20108696 L31.9693095,9.375 Z" id="Shape"></path>
                    <path d="M27.173913,6.11413043 C27.173913,5.51630435 26.8142583,5.02717391 26.3746803,5.02717391 L23.1777494,5.02717391 C22.7381714,5.02717391 22.3785166,5.51630435 22.3785166,6.11413043 L22.3785166,10.4619565 C22.3785166,11.0597826 22.7381714,11.548913 23.1777494,11.548913 L26.3746803,11.548913 C26.8142583,11.548913 27.173913,11.0597826 27.173913,10.4619565 L27.173913,6.11413043 Z M25.5754476,9.375 L23.9769821,9.375 L23.9769821,7.20108696 L25.5754476,7.20108696 L25.5754476,9.375 Z" id="Shape"></path>
                    <path d="M20.7800512,6.11413043 C20.7800512,5.51630435 20.4203964,5.02717391 19.9808184,5.02717391 L16.7838875,5.02717391 C16.3443095,5.02717391 15.9846547,5.51630435 15.9846547,6.11413043 L15.9846547,10.4619565 C15.9846547,11.0597826 16.3443095,11.548913 16.7838875,11.548913 L19.9808184,11.548913 C20.4203964,11.548913 20.7800512,11.0597826 20.7800512,10.4619565 L20.7800512,6.11413043 Z M19.1815857,9.375 L17.5831202,9.375 L17.5831202,7.20108696 L19.1815857,7.20108696 L19.1815857,9.375 Z" id="Shape"></path>
                    <path d="M33.5677749,22.826087 C33.5677749,22.2282609 33.2081202,21.7391304 32.7685422,21.7391304 L29.5716113,21.7391304 C29.1320332,21.7391304 28.7723785,22.2282609 28.7723785,22.826087 L28.7723785,27.173913 C28.7723785,27.7717391 29.1320332,28.2608696 29.5716113,28.2608696 L32.7685422,28.2608696 C33.2081202,28.2608696 33.5677749,27.7717391 33.5677749,27.173913 L33.5677749,22.826087 Z M31.9693095,26.0869565 L30.370844,26.0869565 L30.370844,23.9130435 L31.9693095,23.9130435 L31.9693095,26.0869565 Z" id="Shape"></path>
                    <path d="M27.173913,22.826087 C27.173913,22.2282609 26.8142583,21.7391304 26.3746803,21.7391304 L23.1777494,21.7391304 C22.7381714,21.7391304 22.3785166,22.2282609 22.3785166,22.826087 L22.3785166,27.173913 C22.3785166,27.7717391 22.7381714,28.2608696 23.1777494,28.2608696 L26.3746803,28.2608696 C26.8142583,28.2608696 27.173913,27.7717391 27.173913,27.173913 L27.173913,22.826087 Z M25.5754476,26.0869565 L23.9769821,26.0869565 L23.9769821,23.9130435 L25.5754476,23.9130435 L25.5754476,26.0869565 Z" id="Shape"></path>
                    <path d="M20.7800512,22.826087 C20.7800512,22.2282609 20.4203964,21.7391304 19.9808184,21.7391304 L16.7838875,21.7391304 C16.3443095,21.7391304 15.9846547,22.2282609 15.9846547,22.826087 L15.9846547,27.173913 C15.9846547,27.7717391 16.3443095,28.2608696 16.7838875,28.2608696 L19.9808184,28.2608696 C20.4203964,28.2608696 20.7800512,27.7717391 20.7800512,27.173913 L20.7800512,22.826087 Z M19.1815857,26.0869565 L17.5831202,26.0869565 L17.5831202,23.9130435 L19.1815857,23.9130435 L19.1815857,26.0869565 Z" id="Shape"></path>
                    <path d="M43.9578005,39.1304348 L40.7608696,39.1304348 C40.3212916,39.1304348 39.9616368,39.6195652 39.9616368,40.2173913 L39.9616368,44.5652174 C39.9616368,45.1630435 40.3212916,45.6521739 40.7608696,45.6521739 L43.9578005,45.6521739 C44.3973785,45.6521739 44.7570332,45.1630435 44.7570332,44.5652174 L44.7570332,40.2173913 C44.7570332,39.6195652 44.3973785,39.1304348 43.9578005,39.1304348 Z M43.1585678,43.4782609 L41.5601023,43.4782609 L41.5601023,41.3043478 L43.1585678,41.3043478 L43.1585678,43.4782609 Z" id="Shape"></path>
                    <path d="M35.1662404,2.17391304 L35.1662404,47.826087 L28.7723785,47.826087 L28.7723785,40.2173913 C28.7723785,39.6195652 28.4127238,39.1304348 27.9731458,39.1304348 L21.5792839,39.1304348 C21.1397059,39.1304348 20.7800512,39.6195652 20.7800512,40.2173913 L20.7800512,47.826087 L14.3861893,47.826087 L14.3861893,2.17391304 L35.1662404,2.17391304 Z M13.5869565,0 C13.1473785,0 12.7877238,0.489130435 12.7877238,1.08695652 L12.7877238,4.34782609 L3.99616368,4.34782609 C3.55658568,4.34782609 3.19693095,4.83695652 3.19693095,5.43478261 L3.19693095,8.69565217 L2.39769821,8.69565217 C1.9581202,8.69565217 1.59846547,9.18478261 1.59846547,9.7826087 L1.59846547,47.826087 L0,47.826087 L0,50 L49.5524297,50 L49.5524297,47.826087 L47.9539642,47.826087 L47.9539642,9.7826087 C47.9539642,9.18478261 47.5943095,8.69565217 47.1547315,8.69565217 L46.3554987,8.69565217 L46.3554987,5.43478261 C46.3554987,4.83695652 45.995844,4.34782609 45.556266,4.34782609 L36.7647059,4.34782609 L36.7647059,1.08695652 C36.7647059,0.489130435 36.4050512,0 35.9654731,0 L13.5869565,0 Z M44.7570332,6.52173913 L44.7570332,8.69565217 L36.7647059,8.69565217 L36.7647059,6.52173913 L44.7570332,6.52173913 Z M36.7647059,10.8695652 L46.3554987,10.8695652 L46.3554987,47.826087 L36.7647059,47.826087 L36.7647059,10.8695652 Z M22.3785166,41.3043478 L27.173913,41.3043478 L27.173913,47.826087 L22.3785166,47.826087 L22.3785166,41.3043478 Z M4.79539642,6.52173913 L12.7877238,6.52173913 L12.7877238,8.69565217 L4.79539642,8.69565217 L4.79539642,6.52173913 Z M3.19693095,10.8695652 L12.7877238,10.8695652 L12.7877238,47.826087 L3.19693095,47.826087 L3.19693095,10.8695652 Z" id="Shape"></path>
                </g>
            </g>
        </g>
    </g>
</svg>