<?xml version="1.0" encoding="UTF-8"?>
<svg width="50px" height="50px" viewBox="0 0 50 50" version="1.1" xmlns="http://www.w3.org/2000/svg" xmlns:xlink="http://www.w3.org/1999/xlink">
    <!-- Generator: Sketch 60.1 (88133) - https://sketch.com -->
    <title>icon-boutique</title>
    <desc>Created with Sketch.</desc>
    <g id="Welcome" stroke="none" stroke-width="1" fill="none" fill-rule="evenodd">
        <g id="Desktop---Chiuso" transform="translate(-120.000000, -277.000000)" fill="#000000">
            <g id="prenota-un-appuntamento" transform="translate(120.000000, 252.000000)">
                <g id="title">
                    <g id="icon-boutique" transform="translate(0.000000, 25.000000)">
                        <path d="M32.5696316,47.6190476 L40.4312668,47.6190476 L40.4312668,28.5714286 L32.5696316,28.5714286 L32.5696316,47.6190476 Z M8.98472597,41.6666667 L24.7079964,41.6666667 L24.7079964,28.5714286 L8.98472597,28.5714286 L8.98472597,41.6666667 Z M6.73854447,44.047619 L26.9541779,44.047619 L26.9541779,26.1904762 L6.73854447,26.1904762 L6.73854447,44.047619 Z M32.5696316,20.8702381 C33.6477987,21.8702381 34.9528302,22.6190476 36.5004492,22.6190476 C38.0480683,22.6190476 39.3530997,21.8702381 40.4312668,20.8702381 C41.509434,21.8702381 42.8144654,22.6190476 44.3620845,22.6190476 C44.9359838,22.6190476 45.5053908,22.5178571 46.0467206,22.3214286 L46.0467206,47.6190476 L42.6774483,47.6190476 L42.6774483,26.1904762 L30.3234501,26.1904762 L30.3234501,47.6190476 L3.36927224,47.6190476 L3.36927224,22.3214286 C3.88252471,22.5083333 4.45642408,22.6190476 5.05390836,22.6190476 C6.59928122,22.6190476 7.90768194,21.9035714 8.98472597,20.9071429 C10.06177,21.9047619 11.3701707,22.6190476 12.9155436,22.6190476 C14.4609164,22.6190476 15.7693172,21.9035714 16.8463612,20.9071429 C17.9234052,21.9047619 19.2318059,22.6190476 20.7771788,22.6190476 C22.3225517,22.6190476 23.6309524,21.9035714 24.7079964,20.9071429 C25.7850404,21.9047619 27.0934412,22.6190476 28.638814,22.6190476 C30.1864331,22.6190476 31.4914645,21.8702381 32.5696316,20.8702381 L32.5696316,20.8702381 Z M41.5543576,8.33333333 L46.1871069,8.33333333 C46.3802785,9.42380952 47.1698113,13.725 47.1698113,16.0714286 C47.1698113,17.2440476 46.967655,18.2428571 46.6082659,18.9357143 C46.3454627,19.097619 46.1545373,19.3666667 46.0815364,19.6797619 C45.6873315,20.047619 45.1572327,20.2380952 44.3620845,20.2380952 C43.2468553,20.2380952 42.2708895,19.7309524 41.5543576,18.9357143 L41.5543576,8.33333333 Z M33.6927224,8.33333333 L39.3081761,8.33333333 L39.3081761,18.9357143 C38.5916442,19.7309524 37.6156783,20.2380952 36.5004492,20.2380952 C35.3852201,20.2380952 34.4092543,19.7309524 33.6927224,18.9357143 L33.6927224,8.33333333 Z M25.8310872,8.33333333 L31.4465409,8.33333333 L31.4465409,18.9357143 C30.730009,19.7309524 29.7540431,20.2380952 28.638814,20.2380952 C27.5202156,20.2380952 26.5498652,19.7047619 25.8310872,18.8988095 L25.8310872,8.33333333 Z M17.9694519,8.33333333 L23.5849057,8.33333333 L23.5849057,18.8988095 C22.8661276,19.7047619 21.8957772,20.2380952 20.7771788,20.2380952 C19.6585804,20.2380952 18.68823,19.7047619 17.9694519,18.8988095 L17.9694519,8.33333333 Z M10.1078167,8.33333333 L15.7232704,8.33333333 L15.7232704,18.8988095 C15.0044924,19.7047619 14.034142,20.2380952 12.9155436,20.2380952 C11.7969452,20.2380952 10.8265948,19.7047619 10.1078167,18.8988095 L10.1078167,8.33333333 Z M3.22888589,8.33333333 L7.86163522,8.33333333 L7.86163522,18.8988095 C7.14285714,19.7047619 6.17250674,20.2380952 5.05390836,20.2380952 C4.18575921,20.2380952 3.63656783,20.0047619 3.22888589,19.5678571 C3.15925427,19.425 3.06491465,19.2988095 2.94811321,19.1964286 C2.5,18.5119048 2.24618149,17.3880952 2.24618149,16.0714286 C2.24618149,13.725 3.03571429,9.42380952 3.22888589,8.33333333 L3.22888589,8.33333333 Z M3.36927224,5.95238095 L46.0467206,5.95238095 L46.0467206,2.38095238 L3.36927224,2.38095238 L3.36927224,5.95238095 Z M1.12309075,0 L1.12309075,7.14285714 C1.05121294,7.51190476 0,12.902381 0,16.0714286 C0,17.7130952 0.303234501,19.2821429 1.12309075,20.5357143 L1.12309075,50 L48.2929021,50 L48.2929021,20.5357143 C49.1127583,19.2821429 49.4159928,17.7130952 49.4159928,16.0714286 C49.4159928,12.9380952 48.3861186,7.6952381 48.2929021,7.21666667 C48.2940252,7.19285714 48.2940252,7.16785714 48.2929021,7.14285714 L48.2929021,0 L1.12309075,0 Z" id="Fill-1"></path>
                    </g>
                </g>
            </g>
        </g>
    </g>
</svg>