<svg width="32" height="32" viewBox="0 0 32 32" fill="none" xmlns="http://www.w3.org/2000/svg">
<path fill-rule="evenodd" clip-rule="evenodd" d="M9.72185 27V12.1559H4.79146V27H9.72185ZM7.25663 10.1292C8.97596 10.1292 10.0461 8.9893 10.0461 7.5648C10.0141 6.10823 8.97597 5 7.28925 5C5.60271 5 4.5 6.10823 4.5 7.5648C4.5 8.9893 5.56991 10.1292 7.2245 10.1292H7.25654H7.25663Z" fill="black"/>
<path fill-rule="evenodd" clip-rule="evenodd" d="M12.45 27H17.3804V18.7104C17.3804 18.2668 17.4124 17.8236 17.5426 17.5064C17.899 16.62 18.7103 15.702 20.0723 15.702C21.8564 15.702 22.57 17.0632 22.57 19.0587V27H27.5V18.4886C27.5 13.9291 25.0676 11.8075 21.8238 11.8075C19.164 11.8075 17.9963 13.2953 17.3476 14.3087H17.3805V12.1559H12.4501C12.5148 13.5487 12.4501 27 12.4501 27H12.45Z" fill="black"/>
</svg>
