<svg width="32" height="32" viewBox="0 0 32 32" fill="none" xmlns="http://www.w3.org/2000/svg">
<path d="M11.3635 28C12.0019 26.994 12.9562 25.345 13.3097 24.0294C13.5001 23.3208 14.2853 20.429 14.2853 20.429C14.7959 21.3708 16.2876 22.1681 17.8744 22.1681C22.5973 22.1681 26 17.9673 26 12.7475C26 7.74398 21.7786 4 16.3465 4C9.58896 4 6 8.38771 6 13.1654C6 15.3867 7.22276 18.1524 9.17846 19.0329C9.47523 19.1665 9.63389 19.1076 9.70218 18.8304C9.72478 18.7386 9.78771 18.4914 9.86137 18.2021L9.86153 18.2015C9.95683 17.8271 10.07 17.3824 10.1371 17.1127C10.1752 16.9596 10.1564 16.8283 10.0285 16.6783C9.38153 15.9195 8.86308 14.5236 8.86308 13.2219C8.86308 9.8814 11.4783 6.64907 15.9338 6.64907C19.7807 6.64907 22.4747 9.18453 22.4747 12.8109C22.4747 16.9081 20.3353 19.7465 17.5522 19.7465C16.0149 19.7465 14.8645 18.5172 15.2334 17.0097C15.3931 16.3583 15.607 15.6882 15.8149 15.0367C16.1818 13.8875 16.5302 12.7962 16.5302 11.9668C16.5302 10.8035 15.8849 9.83336 14.5489 9.83336C12.9776 9.83336 11.7155 11.4056 11.7155 13.5117C11.7155 14.853 12.1839 15.7603 12.1839 15.7603C12.1839 15.7603 10.6323 22.1067 10.3477 23.2887C10.0328 24.5969 10.1566 26.4399 10.2934 27.6382L11.3635 28Z" fill="white"/>
</svg>
